<mxfile host="app.diagrams.net" agent="Mozilla/5.0 (Macintosh; Intel Mac OS X 10_15_7) AppleWebKit/605.1.15 (KHTML, like Gecko) Version/18.3.1 Safari/605.1.15" version="26.2.12">
  <diagram name="Page-1" id="-KFrGH2eQ3wVCHejWILQ">
    <mxGraphModel dx="978" dy="671" grid="1" gridSize="10" guides="1" tooltips="1" connect="1" arrows="1" fold="1" page="1" pageScale="1" pageWidth="1000" pageHeight="1000" math="0" shadow="0">
      <root>
        <mxCell id="0" />
        <mxCell id="1" parent="0" />
        <mxCell id="jD5B7bTDOH8jXzNTi9S--1" value="&lt;b&gt;Time&lt;/b&gt;" style="text;html=1;align=center;verticalAlign=middle;whiteSpace=wrap;rounded=0;fontSize=15;" parent="1" vertex="1">
          <mxGeometry x="50" y="40" width="60" height="30" as="geometry" />
        </mxCell>
        <mxCell id="jD5B7bTDOH8jXzNTi9S--14" style="rounded=0;orthogonalLoop=1;jettySize=auto;html=1;exitX=0.5;exitY=1;exitDx=0;exitDy=0;entryX=0.5;entryY=0;entryDx=0;entryDy=0;" parent="1" source="jD5B7bTDOH8jXzNTi9S--2" target="jD5B7bTDOH8jXzNTi9S--3" edge="1">
          <mxGeometry relative="1" as="geometry" />
        </mxCell>
        <mxCell id="jD5B7bTDOH8jXzNTi9S--15" style="rounded=0;orthogonalLoop=1;jettySize=auto;html=1;exitX=0.5;exitY=1;exitDx=0;exitDy=0;entryX=0.5;entryY=0;entryDx=0;entryDy=0;" parent="1" source="jD5B7bTDOH8jXzNTi9S--2" target="jD5B7bTDOH8jXzNTi9S--4" edge="1">
          <mxGeometry relative="1" as="geometry" />
        </mxCell>
        <mxCell id="jD5B7bTDOH8jXzNTi9S--2" value="All" style="rounded=1;whiteSpace=wrap;html=1;" parent="1" vertex="1">
          <mxGeometry x="520" y="115" width="120" height="60" as="geometry" />
        </mxCell>
        <mxCell id="jD5B7bTDOH8jXzNTi9S--16" style="rounded=0;orthogonalLoop=1;jettySize=auto;html=1;exitX=0.5;exitY=1;exitDx=0;exitDy=0;entryX=0.5;entryY=0;entryDx=0;entryDy=0;" parent="1" source="jD5B7bTDOH8jXzNTi9S--3" target="jD5B7bTDOH8jXzNTi9S--11" edge="1">
          <mxGeometry relative="1" as="geometry" />
        </mxCell>
        <mxCell id="jD5B7bTDOH8jXzNTi9S--17" style="rounded=0;orthogonalLoop=1;jettySize=auto;html=1;exitX=0.5;exitY=1;exitDx=0;exitDy=0;entryX=0.5;entryY=0;entryDx=0;entryDy=0;" parent="1" source="jD5B7bTDOH8jXzNTi9S--3" target="jD5B7bTDOH8jXzNTi9S--13" edge="1">
          <mxGeometry relative="1" as="geometry" />
        </mxCell>
        <mxCell id="jD5B7bTDOH8jXzNTi9S--18" style="rounded=0;orthogonalLoop=1;jettySize=auto;html=1;exitX=0.5;exitY=1;exitDx=0;exitDy=0;entryX=0.5;entryY=0;entryDx=0;entryDy=0;" parent="1" source="jD5B7bTDOH8jXzNTi9S--3" target="jD5B7bTDOH8jXzNTi9S--10" edge="1">
          <mxGeometry relative="1" as="geometry" />
        </mxCell>
        <mxCell id="jD5B7bTDOH8jXzNTi9S--3" value="Day" style="rounded=1;whiteSpace=wrap;html=1;" parent="1" vertex="1">
          <mxGeometry x="320" y="240" width="120" height="60" as="geometry" />
        </mxCell>
        <mxCell id="jD5B7bTDOH8jXzNTi9S--19" style="rounded=0;orthogonalLoop=1;jettySize=auto;html=1;exitX=0.5;exitY=1;exitDx=0;exitDy=0;" parent="1" source="jD5B7bTDOH8jXzNTi9S--4" target="jD5B7bTDOH8jXzNTi9S--12" edge="1">
          <mxGeometry relative="1" as="geometry" />
        </mxCell>
        <mxCell id="jD5B7bTDOH8jXzNTi9S--20" style="rounded=0;orthogonalLoop=1;jettySize=auto;html=1;exitX=0.5;exitY=1;exitDx=0;exitDy=0;entryX=0.5;entryY=0;entryDx=0;entryDy=0;" parent="1" source="jD5B7bTDOH8jXzNTi9S--4" target="jD5B7bTDOH8jXzNTi9S--9" edge="1">
          <mxGeometry relative="1" as="geometry" />
        </mxCell>
        <mxCell id="jD5B7bTDOH8jXzNTi9S--21" style="rounded=0;orthogonalLoop=1;jettySize=auto;html=1;exitX=0.5;exitY=1;exitDx=0;exitDy=0;entryX=0.5;entryY=0;entryDx=0;entryDy=0;" parent="1" source="jD5B7bTDOH8jXzNTi9S--4" target="jD5B7bTDOH8jXzNTi9S--8" edge="1">
          <mxGeometry relative="1" as="geometry" />
        </mxCell>
        <mxCell id="jD5B7bTDOH8jXzNTi9S--4" value="Night" style="rounded=1;whiteSpace=wrap;html=1;" parent="1" vertex="1">
          <mxGeometry x="720" y="240" width="120" height="60" as="geometry" />
        </mxCell>
        <mxCell id="jD5B7bTDOH8jXzNTi9S--8" value="05:59" style="rounded=1;whiteSpace=wrap;html=1;" parent="1" vertex="1">
          <mxGeometry x="840" y="420" width="80" height="60" as="geometry" />
        </mxCell>
        <mxCell id="jD5B7bTDOH8jXzNTi9S--9" value="..." style="rounded=1;whiteSpace=wrap;html=1;" parent="1" vertex="1">
          <mxGeometry x="720" y="420" width="80" height="60" as="geometry" />
        </mxCell>
        <mxCell id="jD5B7bTDOH8jXzNTi9S--10" value="17:59" style="rounded=1;whiteSpace=wrap;html=1;" parent="1" vertex="1">
          <mxGeometry x="480" y="420" width="80" height="60" as="geometry" />
        </mxCell>
        <mxCell id="jD5B7bTDOH8jXzNTi9S--11" value="06:00" style="rounded=1;whiteSpace=wrap;html=1;" parent="1" vertex="1">
          <mxGeometry x="240" y="420" width="80" height="60" as="geometry" />
        </mxCell>
        <mxCell id="jD5B7bTDOH8jXzNTi9S--12" value="18:00" style="rounded=1;whiteSpace=wrap;html=1;" parent="1" vertex="1">
          <mxGeometry x="600" y="420" width="80" height="60" as="geometry" />
        </mxCell>
        <mxCell id="jD5B7bTDOH8jXzNTi9S--13" value="..." style="rounded=1;whiteSpace=wrap;html=1;" parent="1" vertex="1">
          <mxGeometry x="360" y="420" width="80" height="60" as="geometry" />
        </mxCell>
        <mxCell id="jD5B7bTDOH8jXzNTi9S--22" value="All" style="text;html=1;align=center;verticalAlign=middle;whiteSpace=wrap;rounded=0;fontSize=15;" parent="1" vertex="1">
          <mxGeometry x="50" y="130" width="60" height="30" as="geometry" />
        </mxCell>
        <mxCell id="rBCC9hUWL7ZMyhFiLo3j-2" style="edgeStyle=orthogonalEdgeStyle;rounded=0;orthogonalLoop=1;jettySize=auto;html=1;exitX=0.5;exitY=0;exitDx=0;exitDy=0;entryX=0.5;entryY=1;entryDx=0;entryDy=0;" edge="1" parent="1" source="jD5B7bTDOH8jXzNTi9S--23" target="jD5B7bTDOH8jXzNTi9S--22">
          <mxGeometry relative="1" as="geometry" />
        </mxCell>
        <mxCell id="jD5B7bTDOH8jXzNTi9S--23" value="time_of_day" style="text;html=1;align=center;verticalAlign=middle;whiteSpace=wrap;rounded=0;fontSize=15;" parent="1" vertex="1">
          <mxGeometry x="50" y="255" width="60" height="30" as="geometry" />
        </mxCell>
        <mxCell id="rBCC9hUWL7ZMyhFiLo3j-1" style="edgeStyle=orthogonalEdgeStyle;rounded=0;orthogonalLoop=1;jettySize=auto;html=1;exitX=0.5;exitY=0;exitDx=0;exitDy=0;entryX=0.5;entryY=1;entryDx=0;entryDy=0;" edge="1" parent="1" source="jD5B7bTDOH8jXzNTi9S--24" target="jD5B7bTDOH8jXzNTi9S--23">
          <mxGeometry relative="1" as="geometry" />
        </mxCell>
        <mxCell id="jD5B7bTDOH8jXzNTi9S--24" value="time" style="text;html=1;align=center;verticalAlign=middle;whiteSpace=wrap;rounded=0;fontSize=15;" parent="1" vertex="1">
          <mxGeometry x="50" y="435" width="60" height="30" as="geometry" />
        </mxCell>
      </root>
    </mxGraphModel>
  </diagram>
</mxfile>
